<mxfile host="65bd71144e">
    <diagram id="yiHalqscg80-_RQLMOU1" name="Page-1">
        <mxGraphModel dx="1913" dy="2016" grid="1" gridSize="10" guides="1" tooltips="1" connect="1" arrows="1" fold="1" page="1" pageScale="1" pageWidth="850" pageHeight="1100" math="0" shadow="0">
            <root>
                <mxCell id="0"/>
                <mxCell id="1" parent="0"/>
                <mxCell id="100" value="" style="rounded=0;whiteSpace=wrap;html=1;movable=0;resizable=0;rotatable=0;deletable=0;editable=0;locked=1;connectable=0;" parent="1" vertex="1">
                    <mxGeometry x="180" y="-460" width="1220" height="1210" as="geometry"/>
                </mxCell>
                <mxCell id="64" value="" style="rounded=1;whiteSpace=wrap;html=1;fillColor=light-dark(#FFFFFF,transparent);strokeColor=light-dark(#000000,#1EFF96);movable=1;resizable=1;rotatable=1;deletable=1;editable=1;locked=0;connectable=1;" parent="1" vertex="1">
                    <mxGeometry x="525" y="110" width="825" height="630" as="geometry"/>
                </mxCell>
                <mxCell id="61" value="" style="rounded=1;whiteSpace=wrap;html=1;fillColor=light-dark(#FFFFFF,transparent);strokeColor=light-dark(#000000,#51D6FF);movable=0;resizable=0;rotatable=0;deletable=0;editable=0;locked=1;connectable=0;" parent="1" vertex="1">
                    <mxGeometry x="740" y="-450" width="650" height="400" as="geometry"/>
                </mxCell>
                <mxCell id="7" value="EParticipationAgreementState" style="swimlane;fontStyle=0;childLayout=stackLayout;horizontal=1;startSize=26;fillColor=light-dark(#FFFFFF,#123640);horizontalStack=0;resizeParent=1;resizeParentMax=0;resizeLast=0;collapsible=1;marginBottom=0;whiteSpace=wrap;html=1;" parent="1" vertex="1">
                    <mxGeometry x="795" y="-240" width="250" height="180" as="geometry"/>
                </mxCell>
                <mxCell id="8" value="&lt;p&gt;&lt;font color=&quot;#000000&quot;&gt;+INDETERMINATE&lt;br&gt;+NOT_ENROLLED&lt;br&gt;+INITIAL_AVAILABLE&lt;br&gt;+PARTICIPATION_AGREEMENT_EXPIRED&lt;br&gt;+REFRESHER_AVAILABLE&lt;br&gt;+REFRESHER_LATE&lt;br&gt;+EXAM_IN_PROGRESS&lt;br&gt;+EXAM_AWAITING_APPROVAL&lt;br&gt;+IN_GOOD_STANDING&lt;/font&gt;&lt;/p&gt;" style="text;strokeColor=none;fillColor=light-dark(#FFFFFF,#123640);align=left;verticalAlign=top;spacingLeft=4;spacingRight=4;overflow=hidden;rotatable=0;points=[[0,0.5],[1,0.5]];portConstraint=eastwest;whiteSpace=wrap;html=1;" parent="7" vertex="1">
                    <mxGeometry y="26" width="250" height="154" as="geometry"/>
                </mxCell>
                <mxCell id="59" style="edgeStyle=none;html=1;entryX=0;entryY=0.5;entryDx=0;entryDy=0;shape=link;fillColor=light-dark(#FFFFFF,#004704);" parent="1" source="2" target="37" edge="1">
                    <mxGeometry relative="1" as="geometry">
                        <Array as="points">
                            <mxPoint x="695" y="227"/>
                        </Array>
                    </mxGeometry>
                </mxCell>
                <mxCell id="2" value="ProviderTrainingContext" style="swimlane;fontStyle=0;childLayout=stackLayout;horizontal=1;startSize=26;fillColor=light-dark(#FFFFFF,#004704);horizontalStack=0;resizeParent=1;resizeParentMax=0;resizeLast=0;collapsible=1;marginBottom=0;whiteSpace=wrap;html=1;" parent="1" vertex="1">
                    <mxGeometry x="545" y="310" width="300" height="100" as="geometry"/>
                </mxCell>
                <mxCell id="3" value="&lt;p&gt;+ProviderTraining ProviderTraining&lt;/p&gt;&lt;p&gt;&lt;span style=&quot;background-color: transparent;&quot;&gt;+ParticipationAgreement? ParticipationAgreement&lt;/span&gt;&lt;/p&gt;" style="text;strokeColor=none;fillColor=light-dark(#FFFFFF,#004704);align=left;verticalAlign=top;spacingLeft=4;spacingRight=4;overflow=hidden;rotatable=0;points=[[0,0.5],[1,0.5]];portConstraint=eastwest;whiteSpace=wrap;html=1;" parent="2" vertex="1">
                    <mxGeometry y="26" width="300" height="74" as="geometry"/>
                </mxCell>
                <mxCell id="56" style="edgeStyle=none;html=1;exitX=0.5;exitY=0;exitDx=0;exitDy=0;entryX=0.5;entryY=1;entryDx=0;entryDy=0;fillColor=light-dark(#FFFFFF,#123640);" parent="1" source="12" target="19" edge="1">
                    <mxGeometry relative="1" as="geometry"/>
                </mxCell>
                <mxCell id="12" value="ProviderTrainingStateIdentifierAttribute" style="swimlane;fontStyle=1;align=center;verticalAlign=top;childLayout=stackLayout;horizontal=1;startSize=26;horizontalStack=0;resizeParent=1;resizeParentMax=0;resizeLast=0;collapsible=1;marginBottom=0;whiteSpace=wrap;html=1;fillColor=light-dark(#FFFFFF,#123640);" parent="1" vertex="1">
                    <mxGeometry x="1060" y="-317" width="240" height="60" as="geometry">
                        <mxRectangle x="300" y="-50" width="100" height="30" as="alternateBounds"/>
                    </mxGeometry>
                </mxCell>
                <mxCell id="15" value="&lt;p&gt;+ctor(string identifier, bool isActive)&lt;/p&gt;" style="text;strokeColor=none;fillColor=light-dark(#FFFFFF,#123640);align=left;verticalAlign=top;spacingLeft=4;spacingRight=4;overflow=hidden;rotatable=0;points=[[0,0.5],[1,0.5]];portConstraint=eastwest;whiteSpace=wrap;html=1;" parent="12" vertex="1">
                    <mxGeometry y="26" width="240" height="34" as="geometry"/>
                </mxCell>
                <mxCell id="19" value="«Attribute»" style="html=1;whiteSpace=wrap;fillColor=light-dark(#FFFFFF,#123640);" parent="1" vertex="1">
                    <mxGeometry x="1135" y="-390" width="90" height="30" as="geometry"/>
                </mxCell>
                <mxCell id="84" style="edgeStyle=none;html=1;exitX=0.5;exitY=1;exitDx=0;exitDy=0;entryX=0.5;entryY=0;entryDx=0;entryDy=0;shape=link;fillColor=light-dark(#FFFFFF,#123640);" parent="1" source="20" target="7" edge="1">
                    <mxGeometry relative="1" as="geometry"/>
                </mxCell>
                <mxCell id="20" value="LookupTableNSh&lt;span style=&quot;background-color: transparent;&quot;&gt;it&lt;/span&gt;" style="html=1;whiteSpace=wrap;fillColor=light-dark(#FFFFFF,#123640);" parent="1" vertex="1">
                    <mxGeometry x="810" y="-317" width="220" height="50" as="geometry"/>
                </mxCell>
                <mxCell id="60" style="edgeStyle=none;html=1;exitX=0.75;exitY=0;exitDx=0;exitDy=0;entryX=1;entryY=0.5;entryDx=0;entryDy=0;shape=link;fillColor=light-dark(#FFFFFF,#004704);" parent="1" source="21" target="37" edge="1">
                    <mxGeometry relative="1" as="geometry">
                        <Array as="points">
                            <mxPoint x="1168" y="227"/>
                        </Array>
                    </mxGeometry>
                </mxCell>
                <mxCell id="21" value="ProviderTrainingState" style="swimlane;fontStyle=1;align=center;verticalAlign=top;childLayout=stackLayout;horizontal=1;startSize=26;horizontalStack=0;resizeParent=1;resizeParentMax=0;resizeLast=0;collapsible=1;marginBottom=0;whiteSpace=wrap;html=1;fillColor=light-dark(#FFFFFF,#004704);" parent="1" vertex="1">
                    <mxGeometry x="965" y="310" width="270" height="130" as="geometry"/>
                </mxCell>
                <mxCell id="22" value="-ProviderTrainingContext[] context" style="text;strokeColor=none;fillColor=light-dark(#FFFFFF,#004704);align=left;verticalAlign=top;spacingLeft=4;spacingRight=4;overflow=hidden;rotatable=0;points=[[0,0.5],[1,0.5]];portConstraint=eastwest;whiteSpace=wrap;html=1;" parent="21" vertex="1">
                    <mxGeometry y="26" width="270" height="26" as="geometry"/>
                </mxCell>
                <mxCell id="23" value="" style="line;strokeWidth=1;fillColor=light-dark(#FFFFFF,#004704);align=left;verticalAlign=middle;spacingTop=-1;spacingLeft=3;spacingRight=3;rotatable=0;labelPosition=right;points=[];portConstraint=eastwest;strokeColor=inherit;" parent="21" vertex="1">
                    <mxGeometry y="52" width="270" height="8" as="geometry"/>
                </mxCell>
                <mxCell id="24" value="&lt;p&gt;&lt;font color=&quot;#000000&quot;&gt;+ctor(ProviderTrainingContext[])&lt;br&gt;&lt;/font&gt;&lt;font color=&quot;#000000&quot;&gt;+abstract bool Evaluate()&lt;br&gt;&lt;/font&gt;&lt;font color=&quot;#000000&quot;&gt;+EProviderTrainingState AsEnum()&lt;/font&gt;&lt;/p&gt;" style="text;strokeColor=none;fillColor=light-dark(#FFFFFF,#004704);align=left;verticalAlign=top;spacingLeft=4;spacingRight=4;overflow=hidden;rotatable=0;points=[[0,0.5],[1,0.5]];portConstraint=eastwest;whiteSpace=wrap;html=1;" parent="21" vertex="1">
                    <mxGeometry y="60" width="270" height="70" as="geometry"/>
                </mxCell>
                <mxCell id="25" value="NotEnrolled_State" style="html=1;whiteSpace=wrap;fillColor=light-dark(#FFFFFF,#004704);" parent="1" vertex="1">
                    <mxGeometry x="1045" y="560" width="220" height="20" as="geometry"/>
                </mxCell>
                <mxCell id="26" value="InitialAvailable_State" style="html=1;whiteSpace=wrap;fillColor=light-dark(#FFFFFF,#004704);" parent="1" vertex="1">
                    <mxGeometry x="1045" y="500" width="220" height="20" as="geometry"/>
                </mxCell>
                <mxCell id="27" value="ParticipationAgreementExpired_State" style="html=1;whiteSpace=wrap;fillColor=light-dark(#FFFFFF,#004704);" parent="1" vertex="1">
                    <mxGeometry x="1045" y="530" width="220" height="20" as="geometry"/>
                </mxCell>
                <mxCell id="28" value="RefresherAvailable_State" style="html=1;whiteSpace=wrap;fillColor=light-dark(#FFFFFF,#004704);" parent="1" vertex="1">
                    <mxGeometry x="1045" y="590" width="220" height="20" as="geometry"/>
                </mxCell>
                <mxCell id="29" value="RefresherLate_State" style="html=1;whiteSpace=wrap;fillColor=light-dark(#FFFFFF,#004704);" parent="1" vertex="1">
                    <mxGeometry x="1045" y="470" width="220" height="20" as="geometry"/>
                </mxCell>
                <mxCell id="52" style="edgeStyle=none;html=1;exitX=0;exitY=0.5;exitDx=0;exitDy=0;entryX=0.013;entryY=0.982;entryDx=0;entryDy=0;entryPerimeter=0;fillColor=light-dark(#FFFFFF,#004704);" parent="1" source="30" target="24" edge="1">
                    <mxGeometry relative="1" as="geometry">
                        <mxPoint x="965" y="438.57142857142856" as="targetPoint"/>
                        <Array as="points">
                            <mxPoint x="969" y="690"/>
                        </Array>
                    </mxGeometry>
                </mxCell>
                <mxCell id="30" value="ExamInProgress_State" style="html=1;whiteSpace=wrap;fillColor=light-dark(#FFFFFF,#004704);" parent="1" vertex="1">
                    <mxGeometry x="1045" y="680" width="220" height="20" as="geometry"/>
                </mxCell>
                <mxCell id="31" value="ExamAwaitingApproval_state" style="html=1;whiteSpace=wrap;fillColor=light-dark(#FFFFFF,#004704);" parent="1" vertex="1">
                    <mxGeometry x="1045" y="650" width="220" height="20" as="geometry"/>
                </mxCell>
                <mxCell id="32" value="InGoodStanding_State" style="html=1;whiteSpace=wrap;fillColor=light-dark(#FFFFFF,#004704);" parent="1" vertex="1">
                    <mxGeometry x="1045" y="620" width="220" height="20" as="geometry"/>
                </mxCell>
                <mxCell id="34" value="ParticipationAgreementStateService" style="swimlane;fontStyle=1;align=center;verticalAlign=top;childLayout=stackLayout;horizontal=1;startSize=26;horizontalStack=0;resizeParent=1;resizeParentMax=0;resizeLast=0;collapsible=1;marginBottom=0;whiteSpace=wrap;html=1;fillColor=light-dark(#FFFFFF,#004704);" parent="1" vertex="1">
                    <mxGeometry x="735" y="170" width="380" height="80" as="geometry"/>
                </mxCell>
                <mxCell id="36" value="" style="line;strokeWidth=1;fillColor=light-dark(#FFFFFF,#004704);align=left;verticalAlign=middle;spacingTop=-1;spacingLeft=3;spacingRight=3;rotatable=0;labelPosition=right;points=[];portConstraint=eastwest;strokeColor=inherit;" parent="34" vertex="1">
                    <mxGeometry y="26" width="380" height="8" as="geometry"/>
                </mxCell>
                <mxCell id="37" value="+ProviderTrainingState GetState(int facility)&lt;div&gt;-ProviderTrainingContext[] GetProviderTrainingContexts(int facilityId)&lt;/div&gt;" style="text;strokeColor=none;fillColor=light-dark(#FFFFFF,#004704);align=left;verticalAlign=top;spacingLeft=4;spacingRight=4;overflow=hidden;rotatable=0;points=[[0,0.5],[1,0.5]];portConstraint=eastwest;whiteSpace=wrap;html=1;" parent="34" vertex="1">
                    <mxGeometry y="34" width="380" height="46" as="geometry"/>
                </mxCell>
                <mxCell id="45" style="edgeStyle=none;html=1;exitX=0;exitY=0.5;exitDx=0;exitDy=0;entryX=0.246;entryY=1.002;entryDx=0;entryDy=0;entryPerimeter=0;fillColor=light-dark(#FFFFFF,#004704);" parent="1" source="29" target="24" edge="1">
                    <mxGeometry relative="1" as="geometry">
                        <Array as="points">
                            <mxPoint x="1031" y="480"/>
                        </Array>
                    </mxGeometry>
                </mxCell>
                <mxCell id="46" style="edgeStyle=none;html=1;exitX=0;exitY=0.5;exitDx=0;exitDy=0;entryX=0.207;entryY=1.017;entryDx=0;entryDy=0;entryPerimeter=0;fillColor=light-dark(#FFFFFF,#004704);" parent="1" source="26" target="24" edge="1">
                    <mxGeometry relative="1" as="geometry">
                        <Array as="points">
                            <mxPoint x="1025" y="510"/>
                        </Array>
                    </mxGeometry>
                </mxCell>
                <mxCell id="47" style="edgeStyle=none;html=1;exitX=0;exitY=0.5;exitDx=0;exitDy=0;entryX=0.167;entryY=1.025;entryDx=0;entryDy=0;entryPerimeter=0;fillColor=light-dark(#FFFFFF,#004704);" parent="1" source="27" target="24" edge="1">
                    <mxGeometry relative="1" as="geometry">
                        <Array as="points">
                            <mxPoint x="1015" y="540"/>
                        </Array>
                    </mxGeometry>
                </mxCell>
                <mxCell id="48" style="edgeStyle=none;html=1;exitX=0;exitY=0.5;exitDx=0;exitDy=0;entryX=0.133;entryY=1.01;entryDx=0;entryDy=0;entryPerimeter=0;fillColor=light-dark(#FFFFFF,#004704);" parent="1" source="25" target="24" edge="1">
                    <mxGeometry relative="1" as="geometry">
                        <Array as="points">
                            <mxPoint x="1005" y="570"/>
                        </Array>
                    </mxGeometry>
                </mxCell>
                <mxCell id="49" style="edgeStyle=none;html=1;exitX=0;exitY=0.5;exitDx=0;exitDy=0;entryX=0.101;entryY=1.002;entryDx=0;entryDy=0;entryPerimeter=0;fillColor=light-dark(#FFFFFF,#004704);" parent="1" source="28" target="24" edge="1">
                    <mxGeometry relative="1" as="geometry">
                        <Array as="points">
                            <mxPoint x="995" y="600"/>
                        </Array>
                    </mxGeometry>
                </mxCell>
                <mxCell id="50" style="edgeStyle=none;html=1;exitX=0;exitY=0.5;exitDx=0;exitDy=0;entryX=0.07;entryY=0.994;entryDx=0;entryDy=0;entryPerimeter=0;fillColor=light-dark(#FFFFFF,#004704);" parent="1" source="32" target="24" edge="1">
                    <mxGeometry relative="1" as="geometry">
                        <Array as="points">
                            <mxPoint x="985" y="630"/>
                        </Array>
                    </mxGeometry>
                </mxCell>
                <mxCell id="51" style="edgeStyle=none;html=1;exitX=0;exitY=0.5;exitDx=0;exitDy=0;entryX=0.039;entryY=0.994;entryDx=0;entryDy=0;entryPerimeter=0;fillColor=light-dark(#FFFFFF,#004704);" parent="1" source="31" target="24" edge="1">
                    <mxGeometry relative="1" as="geometry">
                        <Array as="points">
                            <mxPoint x="975" y="660"/>
                        </Array>
                    </mxGeometry>
                </mxCell>
                <mxCell id="53" style="edgeStyle=none;html=1;exitX=0;exitY=0.5;exitDx=0;exitDy=0;entryX=0.039;entryY=0.994;entryDx=0;entryDy=0;entryPerimeter=0;fillColor=light-dark(#FFFFFF,#004704);" parent="1" source="31" target="24" edge="1">
                    <mxGeometry relative="1" as="geometry">
                        <mxPoint x="1045" y="660" as="sourcePoint"/>
                        <mxPoint x="976" y="440" as="targetPoint"/>
                        <Array as="points">
                            <mxPoint x="976" y="660"/>
                        </Array>
                    </mxGeometry>
                </mxCell>
                <mxCell id="58" style="edgeStyle=none;html=1;entryX=1;entryY=0.5;entryDx=0;entryDy=0;exitX=0.006;exitY=0.038;exitDx=0;exitDy=0;exitPerimeter=0;shape=link;fillColor=light-dark(#FFFFFF,#004704);" parent="1" source="24" target="3" edge="1">
                    <mxGeometry relative="1" as="geometry"/>
                </mxCell>
                <mxCell id="62" value="&lt;font color=&quot;rgba(0, 0, 0, 0)&quot;&gt;Design Time System&lt;/font&gt;" style="text;html=1;align=center;verticalAlign=middle;resizable=0;points=[];autosize=1;strokeColor=light-dark(transparent,#51D6FF);fillColor=none;" parent="1" vertex="1">
                    <mxGeometry x="1145" y="-90" width="130" height="30" as="geometry"/>
                </mxCell>
                <mxCell id="66" value="&lt;font color=&quot;rgba(0, 0, 0, 0)&quot;&gt;PAT State Evaluation System&lt;/font&gt;" style="text;html=1;align=center;verticalAlign=middle;resizable=0;points=[];autosize=1;strokeColor=light-dark(transparent,#1EFF96);fillColor=none;" parent="1" vertex="1">
                    <mxGeometry x="1040" y="120" width="180" height="30" as="geometry"/>
                </mxCell>
                <mxCell id="75" value="GetProviderTrainingStateCommand" style="swimlane;fontStyle=0;childLayout=stackLayout;horizontal=1;startSize=26;fillColor=light-dark(transparent,#424242);horizontalStack=0;resizeParent=1;resizeParentMax=0;resizeLast=0;collapsible=1;marginBottom=0;whiteSpace=wrap;html=1;" parent="1" vertex="1">
                    <mxGeometry x="445" y="-20" width="290" height="56" as="geometry"/>
                </mxCell>
                <mxCell id="104" value="+int FacilityId" style="text;html=1;align=center;verticalAlign=middle;resizable=0;points=[];autosize=1;strokeColor=none;fillColor=none;" vertex="1" parent="75">
                    <mxGeometry y="26" width="290" height="30" as="geometry"/>
                </mxCell>
                <mxCell id="89" style="edgeStyle=none;html=1;exitX=0.5;exitY=0;exitDx=0;exitDy=0;shape=link;" parent="1" source="80" target="8" edge="1">
                    <mxGeometry relative="1" as="geometry"/>
                </mxCell>
                <mxCell id="80" value="GetProviderTrainingStateCommandHandler" style="swimlane;fontStyle=0;childLayout=stackLayout;horizontal=1;startSize=26;fillColor=light-dark(transparent,#424242);horizontalStack=0;resizeParent=1;resizeParentMax=0;resizeLast=0;collapsible=1;marginBottom=0;whiteSpace=wrap;html=1;" parent="1" vertex="1">
                    <mxGeometry x="775" y="-20" width="290" height="100" as="geometry"/>
                </mxCell>
                <mxCell id="81" value="-ICurrentUserService&lt;div&gt;-ParticipationAgreementStateService&lt;/div&gt;" style="text;strokeColor=none;fillColor=light-dark(transparent,#424242);align=left;verticalAlign=top;spacingLeft=4;spacingRight=4;overflow=hidden;rotatable=0;points=[[0,0.5],[1,0.5]];portConstraint=eastwest;whiteSpace=wrap;html=1;" parent="80" vertex="1">
                    <mxGeometry y="26" width="290" height="44" as="geometry"/>
                </mxCell>
                <mxCell id="83" value="+Task&amp;lt;EParticipationAgreementState&amp;gt; Handle(...)" style="text;strokeColor=none;fillColor=light-dark(transparent,#424242);align=left;verticalAlign=top;spacingLeft=4;spacingRight=4;overflow=hidden;rotatable=0;points=[[0,0.5],[1,0.5]];portConstraint=eastwest;whiteSpace=wrap;html=1;" parent="80" vertex="1">
                    <mxGeometry y="70" width="290" height="30" as="geometry"/>
                </mxCell>
                <mxCell id="90" style="edgeStyle=none;html=1;shape=link;entryX=0.486;entryY=0.018;entryDx=0;entryDy=0;entryPerimeter=0;" parent="1" source="80" target="34" edge="1">
                    <mxGeometry relative="1" as="geometry"/>
                </mxCell>
                <mxCell id="91" style="edgeStyle=none;html=1;shape=link;exitX=1;exitY=0.25;exitDx=0;exitDy=0;fillColor=light-dark(transparent,#424242);width=6;" parent="1" source="75" edge="1">
                    <mxGeometry relative="1" as="geometry">
                        <mxPoint x="775" y="-2" as="targetPoint"/>
                    </mxGeometry>
                </mxCell>
                <mxCell id="94" style="edgeStyle=none;html=1;exitX=1;exitY=0.5;exitDx=0;exitDy=0;entryX=0;entryY=0.5;entryDx=0;entryDy=0;shape=link;fillColor=light-dark(transparent,#424242);" parent="1" source="93" target="75" edge="1">
                    <mxGeometry relative="1" as="geometry"/>
                </mxCell>
                <mxCell id="93" value="TrainingController" style="html=1;whiteSpace=wrap;fillColor=light-dark(transparent,#424242);" parent="1" vertex="1">
                    <mxGeometry x="190" y="-20" width="110" height="50" as="geometry"/>
                </mxCell>
                <mxCell id="96" style="edgeStyle=none;html=1;exitX=1;exitY=0.5;exitDx=0;exitDy=0;shape=link;" parent="1" source="95" target="8" edge="1">
                    <mxGeometry relative="1" as="geometry"/>
                </mxCell>
                <mxCell id="97" style="edgeStyle=none;html=1;exitX=0.5;exitY=1;exitDx=0;exitDy=0;shape=link;" parent="1" source="95" target="93" edge="1">
                    <mxGeometry relative="1" as="geometry"/>
                </mxCell>
                <mxCell id="95" value="NSwag" style="shape=module;align=left;spacingLeft=20;align=center;verticalAlign=top;whiteSpace=wrap;html=1;fillColor=light-dark(#FFFFFF,#A35B14);" parent="1" vertex="1">
                    <mxGeometry x="195" y="-167" width="100" height="50" as="geometry"/>
                </mxCell>
                <mxCell id="102" style="edgeStyle=none;html=1;exitX=0;exitY=0.5;exitDx=0;exitDy=0;entryX=0.013;entryY=0.982;entryDx=0;entryDy=0;entryPerimeter=0;fillColor=light-dark(#FFFFFF,#004704);" edge="1" parent="1" source="103">
                    <mxGeometry relative="1" as="geometry">
                        <mxPoint x="969" y="469" as="targetPoint"/>
                        <Array as="points">
                            <mxPoint x="969" y="720"/>
                        </Array>
                    </mxGeometry>
                </mxCell>
                <mxCell id="103" value="INDETERMINATE_State" style="html=1;whiteSpace=wrap;fillColor=light-dark(#FFFFFF,#004704);" vertex="1" parent="1">
                    <mxGeometry x="1045" y="710" width="220" height="20" as="geometry"/>
                </mxCell>
            </root>
        </mxGraphModel>
    </diagram>
</mxfile>